<mxfile host="app.diagrams.net" modified="2023-04-30T17:00:46.765Z" agent="Mozilla/5.0 (Windows NT 10.0; Win64; x64) AppleWebKit/537.36 (KHTML, like Gecko) Chrome/112.0.0.0 Safari/537.36" etag="2AqOeXJ6UjqWKQnU2Jw9" version="21.2.3" type="device">
  <diagram name="Page-1" id="xPO5jmJ94sbvtB7UM_sv">
    <mxGraphModel dx="2170" dy="1455" grid="1" gridSize="10" guides="1" tooltips="1" connect="1" arrows="1" fold="1" page="1" pageScale="1" pageWidth="850" pageHeight="1100" math="0" shadow="0">
      <root>
        <mxCell id="0" />
        <mxCell id="1" parent="0" />
        <mxCell id="MLpWnbLiUV6MxmCEt6LE-1" value="" style="rounded=0;whiteSpace=wrap;html=1;" parent="1" vertex="1">
          <mxGeometry x="50" y="50" width="700" height="970" as="geometry" />
        </mxCell>
        <mxCell id="MLpWnbLiUV6MxmCEt6LE-17" value="" style="rounded=0;whiteSpace=wrap;html=1;" parent="1" vertex="1">
          <mxGeometry x="150" y="60" width="500" height="30" as="geometry" />
        </mxCell>
        <mxCell id="MLpWnbLiUV6MxmCEt6LE-2" value="&lt;font style=&quot;font-size: 8px;&quot;&gt;logo&lt;/font&gt;" style="ellipse;whiteSpace=wrap;html=1;aspect=fixed;" parent="1" vertex="1">
          <mxGeometry x="155" y="65" width="20" height="20" as="geometry" />
        </mxCell>
        <mxCell id="MLpWnbLiUV6MxmCEt6LE-3" value="&lt;span style=&quot;font-size: 24px;&quot;&gt;Main Page Block-out&lt;/span&gt;" style="text;html=1;strokeColor=none;fillColor=none;align=center;verticalAlign=middle;whiteSpace=wrap;rounded=0;" parent="1" vertex="1">
          <mxGeometry x="235" y="10" width="330" height="30" as="geometry" />
        </mxCell>
        <mxCell id="MLpWnbLiUV6MxmCEt6LE-14" value="padding&lt;br&gt;(100px)" style="text;html=1;strokeColor=none;fillColor=none;align=center;verticalAlign=middle;whiteSpace=wrap;rounded=0;" parent="1" vertex="1">
          <mxGeometry x="60" y="210" width="60" height="30" as="geometry" />
        </mxCell>
        <mxCell id="MLpWnbLiUV6MxmCEt6LE-15" value="padding&lt;br&gt;(100px)" style="text;html=1;strokeColor=none;fillColor=none;align=center;verticalAlign=middle;whiteSpace=wrap;rounded=0;" parent="1" vertex="1">
          <mxGeometry x="670" y="220" width="60" height="30" as="geometry" />
        </mxCell>
        <mxCell id="MLpWnbLiUV6MxmCEt6LE-18" value="About" style="shape=partialRectangle;whiteSpace=wrap;html=1;right=0;top=0;bottom=0;fillColor=none;routingCenterX=-0.5;direction=west;" parent="1" vertex="1">
          <mxGeometry x="440" y="65" width="60" height="20" as="geometry" />
        </mxCell>
        <mxCell id="MLpWnbLiUV6MxmCEt6LE-19" value="Experience" style="shape=partialRectangle;whiteSpace=wrap;html=1;right=0;top=0;bottom=0;fillColor=none;routingCenterX=-0.5;direction=west;" parent="1" vertex="1">
          <mxGeometry x="500" y="65" width="80" height="20" as="geometry" />
        </mxCell>
        <mxCell id="MLpWnbLiUV6MxmCEt6LE-21" value="Resume" style="text;html=1;strokeColor=none;fillColor=none;align=center;verticalAlign=middle;whiteSpace=wrap;rounded=0;" parent="1" vertex="1">
          <mxGeometry x="580" y="60" width="60" height="30" as="geometry" />
        </mxCell>
        <mxCell id="MLpWnbLiUV6MxmCEt6LE-23" value="" style="rounded=0;whiteSpace=wrap;html=1;" parent="1" vertex="1">
          <mxGeometry x="150" y="90" width="500" height="220" as="geometry" />
        </mxCell>
        <mxCell id="MLpWnbLiUV6MxmCEt6LE-25" value="Adam Kaufman" style="text;html=1;strokeColor=none;fillColor=none;align=center;verticalAlign=middle;whiteSpace=wrap;rounded=0;" parent="1" vertex="1">
          <mxGeometry x="170" y="60" width="100" height="30" as="geometry" />
        </mxCell>
        <mxCell id="MLpWnbLiUV6MxmCEt6LE-26" value="Welcome animation/game" style="rounded=1;whiteSpace=wrap;html=1;" parent="1" vertex="1">
          <mxGeometry x="200" y="100" width="400" height="140" as="geometry" />
        </mxCell>
        <mxCell id="MLpWnbLiUV6MxmCEt6LE-27" value="Adam&#39;s Portfolio" style="text;html=1;strokeColor=none;fillColor=none;align=center;verticalAlign=middle;whiteSpace=wrap;rounded=0;" parent="1" vertex="1">
          <mxGeometry x="350" y="250" width="100" height="30" as="geometry" />
        </mxCell>
        <mxCell id="MLpWnbLiUV6MxmCEt6LE-28" value="" style="rounded=0;whiteSpace=wrap;html=1;" parent="1" vertex="1">
          <mxGeometry x="150" y="310" width="500" height="160" as="geometry" />
        </mxCell>
        <mxCell id="MLpWnbLiUV6MxmCEt6LE-29" value="&lt;h1&gt;About Me blurb&lt;/h1&gt;&lt;p&gt;Lorem ipsum dolor sit amet, consectetur adipisicing elit, sed do eiusmod tempor incididunt ut labore et dolore magna aliqua.&lt;/p&gt;" style="text;html=1;strokeColor=none;fillColor=none;spacing=5;spacingTop=-20;whiteSpace=wrap;overflow=hidden;rounded=0;" parent="1" vertex="1">
          <mxGeometry x="160" y="330" width="220" height="120" as="geometry" />
        </mxCell>
        <mxCell id="MLpWnbLiUV6MxmCEt6LE-30" value="&lt;h1&gt;Skills list&lt;/h1&gt;&lt;p&gt;Lorem ipsum dolor sit amet, consectetur adipisicing elit, sed do eiusmod tempor incididunt ut labore et dolore magna aliqua.&lt;/p&gt;" style="text;html=1;strokeColor=none;fillColor=none;spacing=5;spacingTop=-20;whiteSpace=wrap;overflow=hidden;rounded=0;" parent="1" vertex="1">
          <mxGeometry x="410" y="330" width="190" height="120" as="geometry" />
        </mxCell>
        <mxCell id="MLpWnbLiUV6MxmCEt6LE-32" value="Contact info" style="text;html=1;strokeColor=none;fillColor=none;align=center;verticalAlign=middle;whiteSpace=wrap;rounded=0;" parent="1" vertex="1">
          <mxGeometry x="160" y="250" width="80" height="30" as="geometry" />
        </mxCell>
        <mxCell id="MLpWnbLiUV6MxmCEt6LE-33" value="Links" style="text;html=1;strokeColor=none;fillColor=none;align=center;verticalAlign=middle;whiteSpace=wrap;rounded=0;" parent="1" vertex="1">
          <mxGeometry x="550" y="250" width="60" height="30" as="geometry" />
        </mxCell>
        <mxCell id="MLpWnbLiUV6MxmCEt6LE-34" value="" style="rounded=0;whiteSpace=wrap;html=1;" parent="1" vertex="1">
          <mxGeometry x="150" y="470" width="500" height="310" as="geometry" />
        </mxCell>
        <mxCell id="MLpWnbLiUV6MxmCEt6LE-36" value="Experience" style="text;html=1;strokeColor=none;fillColor=none;align=center;verticalAlign=middle;whiteSpace=wrap;rounded=0;" parent="1" vertex="1">
          <mxGeometry x="370" y="470" width="60" height="30" as="geometry" />
        </mxCell>
        <mxCell id="MLpWnbLiUV6MxmCEt6LE-37" value="Job tile" style="whiteSpace=wrap;html=1;aspect=fixed;" parent="1" vertex="1">
          <mxGeometry x="190" y="510" width="80" height="80" as="geometry" />
        </mxCell>
        <mxCell id="MLpWnbLiUV6MxmCEt6LE-38" value="Job tile" style="whiteSpace=wrap;html=1;aspect=fixed;" parent="1" vertex="1">
          <mxGeometry x="305" y="510" width="80" height="80" as="geometry" />
        </mxCell>
        <mxCell id="MLpWnbLiUV6MxmCEt6LE-39" value="Job tile" style="whiteSpace=wrap;html=1;aspect=fixed;" parent="1" vertex="1">
          <mxGeometry x="420" y="510" width="80" height="80" as="geometry" />
        </mxCell>
        <mxCell id="MLpWnbLiUV6MxmCEt6LE-40" value="Job tile" style="whiteSpace=wrap;html=1;aspect=fixed;" parent="1" vertex="1">
          <mxGeometry x="535" y="510" width="80" height="80" as="geometry" />
        </mxCell>
        <mxCell id="MLpWnbLiUV6MxmCEt6LE-41" value="Title&lt;br&gt;Skills" style="text;html=1;strokeColor=none;fillColor=none;align=center;verticalAlign=middle;whiteSpace=wrap;rounded=0;" parent="1" vertex="1">
          <mxGeometry x="200" y="590" width="60" height="30" as="geometry" />
        </mxCell>
        <mxCell id="MLpWnbLiUV6MxmCEt6LE-42" value="Title&lt;br&gt;Skills" style="text;html=1;strokeColor=none;fillColor=none;align=center;verticalAlign=middle;whiteSpace=wrap;rounded=0;" parent="1" vertex="1">
          <mxGeometry x="315" y="590" width="60" height="30" as="geometry" />
        </mxCell>
        <mxCell id="MLpWnbLiUV6MxmCEt6LE-43" value="Title&lt;br&gt;Skills" style="text;html=1;strokeColor=none;fillColor=none;align=center;verticalAlign=middle;whiteSpace=wrap;rounded=0;" parent="1" vertex="1">
          <mxGeometry x="430" y="590" width="60" height="30" as="geometry" />
        </mxCell>
        <mxCell id="MLpWnbLiUV6MxmCEt6LE-44" value="Title&lt;br&gt;Skills" style="text;html=1;strokeColor=none;fillColor=none;align=center;verticalAlign=middle;whiteSpace=wrap;rounded=0;" parent="1" vertex="1">
          <mxGeometry x="545" y="590" width="60" height="30" as="geometry" />
        </mxCell>
        <mxCell id="MLpWnbLiUV6MxmCEt6LE-45" value="" style="rounded=0;whiteSpace=wrap;html=1;" parent="1" vertex="1">
          <mxGeometry x="150" y="780" width="500" height="170" as="geometry" />
        </mxCell>
        <mxCell id="MLpWnbLiUV6MxmCEt6LE-46" value="Resume embedded view" style="text;html=1;strokeColor=none;fillColor=none;align=center;verticalAlign=middle;whiteSpace=wrap;rounded=0;" parent="1" vertex="1">
          <mxGeometry x="327.5" y="780" width="145" height="30" as="geometry" />
        </mxCell>
        <mxCell id="MLpWnbLiUV6MxmCEt6LE-47" value="" style="rounded=1;whiteSpace=wrap;html=1;" parent="1" vertex="1">
          <mxGeometry x="275" y="810" width="250" height="140" as="geometry" />
        </mxCell>
        <mxCell id="MLpWnbLiUV6MxmCEt6LE-48" value="Footer shpiel" style="text;html=1;strokeColor=none;fillColor=none;align=center;verticalAlign=middle;whiteSpace=wrap;rounded=0;" parent="1" vertex="1">
          <mxGeometry x="335" y="980" width="130" height="30" as="geometry" />
        </mxCell>
        <mxCell id="MLpWnbLiUV6MxmCEt6LE-49" value="" style="shape=singleArrow;direction=north;whiteSpace=wrap;html=1;arrowWidth=0.31666666666666665;arrowSize=0.9111111111111111;" parent="1" vertex="1">
          <mxGeometry x="372.5" y="970" width="55" height="10" as="geometry" />
        </mxCell>
        <mxCell id="MLpWnbLiUV6MxmCEt6LE-12" value="" style="endArrow=none;dashed=1;html=1;dashPattern=1 3;strokeWidth=2;rounded=0;" parent="1" edge="1">
          <mxGeometry width="50" height="50" relative="1" as="geometry">
            <mxPoint x="650" y="20" as="sourcePoint" />
            <mxPoint x="650" y="1060" as="targetPoint" />
          </mxGeometry>
        </mxCell>
        <mxCell id="MLpWnbLiUV6MxmCEt6LE-9" value="" style="endArrow=none;dashed=1;html=1;dashPattern=1 3;strokeWidth=2;rounded=0;" parent="1" edge="1">
          <mxGeometry width="50" height="50" relative="1" as="geometry">
            <mxPoint x="150" y="1060" as="sourcePoint" />
            <mxPoint x="150" y="30" as="targetPoint" />
          </mxGeometry>
        </mxCell>
        <mxCell id="MLpWnbLiUV6MxmCEt6LE-10" value="" style="endArrow=none;dashed=1;html=1;dashPattern=1 3;strokeWidth=2;rounded=0;fontSize=5;" parent="1" edge="1">
          <mxGeometry width="50" height="50" relative="1" as="geometry">
            <mxPoint x="30" y="60" as="sourcePoint" />
            <mxPoint x="800" y="60" as="targetPoint" />
          </mxGeometry>
        </mxCell>
        <mxCell id="9rGnRqHviskcA7LW9nee-2" value="" style="rounded=0;whiteSpace=wrap;html=1;" parent="1" vertex="1">
          <mxGeometry x="910" y="150" width="670" height="340" as="geometry" />
        </mxCell>
        <mxCell id="9rGnRqHviskcA7LW9nee-4" value="&lt;span style=&quot;font-size: 24px;&quot;&gt;Project pop-up&lt;/span&gt;" style="text;html=1;strokeColor=none;fillColor=none;align=center;verticalAlign=middle;whiteSpace=wrap;rounded=0;" parent="1" vertex="1">
          <mxGeometry x="1080" y="110" width="330" height="30" as="geometry" />
        </mxCell>
        <mxCell id="9rGnRqHviskcA7LW9nee-5" value="Image Carousel" style="rounded=1;whiteSpace=wrap;html=1;" parent="1" vertex="1">
          <mxGeometry x="950" y="220" width="220" height="200" as="geometry" />
        </mxCell>
        <mxCell id="9rGnRqHviskcA7LW9nee-6" value="" style="verticalLabelPosition=bottom;verticalAlign=top;html=1;strokeWidth=2;shape=mxgraph.arrows2.arrow;dy=0.7;dx=16.43;notch=0;" parent="1" vertex="1">
          <mxGeometry x="1180" y="300" width="25" height="40" as="geometry" />
        </mxCell>
        <mxCell id="9rGnRqHviskcA7LW9nee-7" value="" style="verticalLabelPosition=bottom;verticalAlign=top;html=1;strokeWidth=2;shape=mxgraph.arrows2.arrow;dy=0.7;dx=16.43;notch=0;direction=west;" parent="1" vertex="1">
          <mxGeometry x="920" y="300" width="25" height="40" as="geometry" />
        </mxCell>
        <mxCell id="9rGnRqHviskcA7LW9nee-8" value="&lt;h1&gt;Project Title&lt;/h1&gt;&lt;p&gt;Lorem ipsum dolor sit amet, consectetur adipisicing elit, sed do eiusmod tempor incididunt ut labore et dolore magna aliqua.&amp;nbsp;&lt;/p&gt;Lorem ipsum dolor sit amet, consectetur adipisicing elit, sed do eiusmod tempor incididunt ut labore et dolore magna aliqua." style="text;html=1;strokeColor=none;fillColor=none;spacing=5;spacingTop=-20;whiteSpace=wrap;overflow=hidden;rounded=0;" parent="1" vertex="1">
          <mxGeometry x="1240" y="220" width="300" height="170" as="geometry" />
        </mxCell>
        <mxCell id="9rGnRqHviskcA7LW9nee-9" value="" style="rounded=0;whiteSpace=wrap;html=1;" parent="1" vertex="1">
          <mxGeometry x="1020" y="595" width="370" height="245" as="geometry" />
        </mxCell>
        <mxCell id="9rGnRqHviskcA7LW9nee-11" value="&lt;span style=&quot;font-size: 24px;&quot;&gt;Admin Login pop-up&lt;/span&gt;" style="text;html=1;strokeColor=none;fillColor=none;align=center;verticalAlign=middle;whiteSpace=wrap;rounded=0;" parent="1" vertex="1">
          <mxGeometry x="1040" y="560" width="330" height="30" as="geometry" />
        </mxCell>
        <mxCell id="9rGnRqHviskcA7LW9nee-12" value="Welcome back me!" style="text;html=1;strokeColor=none;fillColor=none;align=center;verticalAlign=middle;whiteSpace=wrap;rounded=0;" parent="1" vertex="1">
          <mxGeometry x="1145" y="657.5" width="120" height="30" as="geometry" />
        </mxCell>
        <mxCell id="9rGnRqHviskcA7LW9nee-14" value="Username" style="rounded=0;whiteSpace=wrap;html=1;align=left;" parent="1" vertex="1">
          <mxGeometry x="1145" y="697.5" width="120" height="20" as="geometry" />
        </mxCell>
        <mxCell id="9rGnRqHviskcA7LW9nee-15" value="Password" style="rounded=0;whiteSpace=wrap;html=1;align=left;" parent="1" vertex="1">
          <mxGeometry x="1145" y="727.5" width="120" height="20" as="geometry" />
        </mxCell>
        <mxCell id="9rGnRqHviskcA7LW9nee-16" value="Sign in" style="rounded=1;whiteSpace=wrap;html=1;" parent="1" vertex="1">
          <mxGeometry x="1145" y="757.5" width="120" height="20" as="geometry" />
        </mxCell>
        <mxCell id="9rGnRqHviskcA7LW9nee-17" value="" style="edgeStyle=elbowEdgeStyle;elbow=horizontal;endArrow=classic;html=1;curved=0;rounded=0;endSize=8;startSize=8;exitX=1;exitY=0.5;exitDx=0;exitDy=0;entryX=0;entryY=0.75;entryDx=0;entryDy=0;" parent="1" source="MLpWnbLiUV6MxmCEt6LE-40" target="9rGnRqHviskcA7LW9nee-2" edge="1">
          <mxGeometry width="50" height="50" relative="1" as="geometry">
            <mxPoint x="840" y="600" as="sourcePoint" />
            <mxPoint x="890" y="550" as="targetPoint" />
            <Array as="points">
              <mxPoint x="820" y="430" />
            </Array>
          </mxGeometry>
        </mxCell>
        <mxCell id="9rGnRqHviskcA7LW9nee-19" value="" style="edgeStyle=segmentEdgeStyle;endArrow=classic;html=1;curved=0;rounded=0;endSize=8;startSize=8;exitX=0.5;exitY=1;exitDx=0;exitDy=0;" parent="1" source="9rGnRqHviskcA7LW9nee-22" edge="1">
          <mxGeometry width="50" height="50" relative="1" as="geometry">
            <mxPoint x="620" y="1060" as="sourcePoint" />
            <mxPoint x="1210" y="840" as="targetPoint" />
            <Array as="points">
              <mxPoint x="607" y="1070" />
              <mxPoint x="1210" y="1070" />
            </Array>
          </mxGeometry>
        </mxCell>
        <mxCell id="9rGnRqHviskcA7LW9nee-22" value="Admin sign-in" style="rounded=1;whiteSpace=wrap;html=1;arcSize=50;" parent="1" vertex="1">
          <mxGeometry x="580" y="970" width="55" height="40" as="geometry" />
        </mxCell>
        <mxCell id="9rGnRqHviskcA7LW9nee-24" value="padding (10px)" style="text;html=1;strokeColor=none;fillColor=none;align=center;verticalAlign=middle;whiteSpace=wrap;rounded=0;" parent="1" vertex="1">
          <mxGeometry x="40" y="40" width="120" height="20" as="geometry" />
        </mxCell>
        <mxCell id="9rGnRqHviskcA7LW9nee-26" value="" style="rounded=0;whiteSpace=wrap;html=1;" parent="1" vertex="1">
          <mxGeometry x="1780" y="150" width="620" height="800" as="geometry" />
        </mxCell>
        <mxCell id="9rGnRqHviskcA7LW9nee-27" value="" style="endArrow=classic;html=1;rounded=0;exitX=1;exitY=0.5;exitDx=0;exitDy=0;" parent="1" source="9rGnRqHviskcA7LW9nee-9" edge="1">
          <mxGeometry width="50" height="50" relative="1" as="geometry">
            <mxPoint x="1610" y="650" as="sourcePoint" />
            <mxPoint x="1780" y="718" as="targetPoint" />
          </mxGeometry>
        </mxCell>
        <mxCell id="9rGnRqHviskcA7LW9nee-28" value="&lt;span style=&quot;font-size: 24px;&quot;&gt;Admin Edit View&lt;/span&gt;" style="text;html=1;strokeColor=none;fillColor=none;align=center;verticalAlign=middle;whiteSpace=wrap;rounded=0;" parent="1" vertex="1">
          <mxGeometry x="1925" y="110" width="330" height="30" as="geometry" />
        </mxCell>
        <mxCell id="txtvfkZL9xQmY36xnjyu-2" value="Edit Contacts" style="swimlane;fontStyle=0;childLayout=stackLayout;horizontal=1;startSize=26;fillColor=none;horizontalStack=0;resizeParent=1;resizeParentMax=0;resizeLast=0;collapsible=1;marginBottom=0;html=1;" vertex="1" parent="1">
          <mxGeometry x="1810" y="231" width="140" height="104" as="geometry" />
        </mxCell>
        <mxCell id="txtvfkZL9xQmY36xnjyu-3" value="Item 1" style="text;strokeColor=none;fillColor=none;align=left;verticalAlign=top;spacingLeft=4;spacingRight=4;overflow=hidden;rotatable=0;points=[[0,0.5],[1,0.5]];portConstraint=eastwest;whiteSpace=wrap;html=1;" vertex="1" parent="txtvfkZL9xQmY36xnjyu-2">
          <mxGeometry y="26" width="140" height="26" as="geometry" />
        </mxCell>
        <mxCell id="txtvfkZL9xQmY36xnjyu-4" value="Item 2" style="text;strokeColor=none;fillColor=none;align=left;verticalAlign=top;spacingLeft=4;spacingRight=4;overflow=hidden;rotatable=0;points=[[0,0.5],[1,0.5]];portConstraint=eastwest;whiteSpace=wrap;html=1;" vertex="1" parent="txtvfkZL9xQmY36xnjyu-2">
          <mxGeometry y="52" width="140" height="26" as="geometry" />
        </mxCell>
        <mxCell id="txtvfkZL9xQmY36xnjyu-5" value="Item 3" style="text;strokeColor=none;fillColor=none;align=left;verticalAlign=top;spacingLeft=4;spacingRight=4;overflow=hidden;rotatable=0;points=[[0,0.5],[1,0.5]];portConstraint=eastwest;whiteSpace=wrap;html=1;" vertex="1" parent="txtvfkZL9xQmY36xnjyu-2">
          <mxGeometry y="78" width="140" height="26" as="geometry" />
        </mxCell>
        <mxCell id="txtvfkZL9xQmY36xnjyu-6" value="Edit Links" style="swimlane;fontStyle=0;childLayout=stackLayout;horizontal=1;startSize=26;fillColor=none;horizontalStack=0;resizeParent=1;resizeParentMax=0;resizeLast=0;collapsible=1;marginBottom=0;html=1;" vertex="1" parent="1">
          <mxGeometry x="2210" y="231" width="140" height="104" as="geometry" />
        </mxCell>
        <mxCell id="txtvfkZL9xQmY36xnjyu-7" value="Item 1" style="text;strokeColor=none;fillColor=none;align=left;verticalAlign=top;spacingLeft=4;spacingRight=4;overflow=hidden;rotatable=0;points=[[0,0.5],[1,0.5]];portConstraint=eastwest;whiteSpace=wrap;html=1;" vertex="1" parent="txtvfkZL9xQmY36xnjyu-6">
          <mxGeometry y="26" width="140" height="26" as="geometry" />
        </mxCell>
        <mxCell id="txtvfkZL9xQmY36xnjyu-8" value="Item 2" style="text;strokeColor=none;fillColor=none;align=left;verticalAlign=top;spacingLeft=4;spacingRight=4;overflow=hidden;rotatable=0;points=[[0,0.5],[1,0.5]];portConstraint=eastwest;whiteSpace=wrap;html=1;" vertex="1" parent="txtvfkZL9xQmY36xnjyu-6">
          <mxGeometry y="52" width="140" height="26" as="geometry" />
        </mxCell>
        <mxCell id="txtvfkZL9xQmY36xnjyu-9" value="Item 3" style="text;strokeColor=none;fillColor=none;align=left;verticalAlign=top;spacingLeft=4;spacingRight=4;overflow=hidden;rotatable=0;points=[[0,0.5],[1,0.5]];portConstraint=eastwest;whiteSpace=wrap;html=1;" vertex="1" parent="txtvfkZL9xQmY36xnjyu-6">
          <mxGeometry y="78" width="140" height="26" as="geometry" />
        </mxCell>
        <mxCell id="txtvfkZL9xQmY36xnjyu-10" value="Edit About me blurb" style="text;html=1;strokeColor=none;fillColor=none;align=center;verticalAlign=middle;whiteSpace=wrap;rounded=0;" vertex="1" parent="1">
          <mxGeometry x="1810" y="375" width="115" height="30" as="geometry" />
        </mxCell>
        <mxCell id="txtvfkZL9xQmY36xnjyu-11" value="" style="rounded=0;whiteSpace=wrap;html=1;" vertex="1" parent="1">
          <mxGeometry x="1810" y="405" width="290" height="175" as="geometry" />
        </mxCell>
        <mxCell id="txtvfkZL9xQmY36xnjyu-13" value="Edit Skills List" style="swimlane;fontStyle=0;childLayout=stackLayout;horizontal=1;startSize=26;fillColor=none;horizontalStack=0;resizeParent=1;resizeParentMax=0;resizeLast=0;collapsible=1;marginBottom=0;html=1;" vertex="1" parent="1">
          <mxGeometry x="2140" y="405" width="200" height="164" as="geometry">
            <mxRectangle x="2140" y="405" width="110" height="30" as="alternateBounds" />
          </mxGeometry>
        </mxCell>
        <mxCell id="txtvfkZL9xQmY36xnjyu-14" value="Item 1" style="text;strokeColor=none;fillColor=none;align=left;verticalAlign=top;spacingLeft=4;spacingRight=4;overflow=hidden;rotatable=0;points=[[0,0.5],[1,0.5]];portConstraint=eastwest;whiteSpace=wrap;html=1;" vertex="1" parent="txtvfkZL9xQmY36xnjyu-13">
          <mxGeometry y="26" width="200" height="26" as="geometry" />
        </mxCell>
        <mxCell id="txtvfkZL9xQmY36xnjyu-15" value="Item 2" style="text;strokeColor=none;fillColor=none;align=left;verticalAlign=top;spacingLeft=4;spacingRight=4;overflow=hidden;rotatable=0;points=[[0,0.5],[1,0.5]];portConstraint=eastwest;whiteSpace=wrap;html=1;" vertex="1" parent="txtvfkZL9xQmY36xnjyu-13">
          <mxGeometry y="52" width="200" height="26" as="geometry" />
        </mxCell>
        <mxCell id="txtvfkZL9xQmY36xnjyu-16" value="Item 3" style="text;strokeColor=none;fillColor=none;align=left;verticalAlign=top;spacingLeft=4;spacingRight=4;overflow=hidden;rotatable=0;points=[[0,0.5],[1,0.5]];portConstraint=eastwest;whiteSpace=wrap;html=1;" vertex="1" parent="txtvfkZL9xQmY36xnjyu-13">
          <mxGeometry y="78" width="200" height="26" as="geometry" />
        </mxCell>
        <mxCell id="txtvfkZL9xQmY36xnjyu-19" value="Item 4" style="text;strokeColor=none;fillColor=none;align=left;verticalAlign=middle;spacingLeft=4;spacingRight=4;overflow=hidden;points=[[0,0.5],[1,0.5]];portConstraint=eastwest;rotatable=0;whiteSpace=wrap;html=1;" vertex="1" parent="txtvfkZL9xQmY36xnjyu-13">
          <mxGeometry y="104" width="200" height="30" as="geometry" />
        </mxCell>
        <mxCell id="txtvfkZL9xQmY36xnjyu-18" value="Item 5" style="text;strokeColor=none;fillColor=none;align=left;verticalAlign=middle;spacingLeft=4;spacingRight=4;overflow=hidden;points=[[0,0.5],[1,0.5]];portConstraint=eastwest;rotatable=0;whiteSpace=wrap;html=1;" vertex="1" parent="txtvfkZL9xQmY36xnjyu-13">
          <mxGeometry y="134" width="200" height="30" as="geometry" />
        </mxCell>
        <mxCell id="txtvfkZL9xQmY36xnjyu-20" value="&lt;h1 style=&quot;line-height: 60%;&quot;&gt;&lt;span style=&quot;background-color: initial; font-size: 12px; font-weight: normal;&quot;&gt;Lorem ipsum dolor sit amet, consectetur adipisicing elit, sed do eiusmod tempor incididunt ut labore et dolore magna aliqua.&lt;/span&gt;&lt;br&gt;&lt;/h1&gt;" style="text;html=1;strokeColor=none;fillColor=none;spacing=5;spacingTop=-20;whiteSpace=wrap;overflow=hidden;rounded=0;" vertex="1" parent="1">
          <mxGeometry x="1810" y="410" width="190" height="120" as="geometry" />
        </mxCell>
        <mxCell id="txtvfkZL9xQmY36xnjyu-22" value="Pick a project to edit" style="swimlane;fontStyle=0;childLayout=stackLayout;horizontal=1;startSize=30;horizontalStack=0;resizeParent=1;resizeParentMax=0;resizeLast=0;collapsible=1;marginBottom=0;whiteSpace=wrap;html=1;" vertex="1" parent="1">
          <mxGeometry x="1810" y="620" width="140" height="240" as="geometry" />
        </mxCell>
        <mxCell id="txtvfkZL9xQmY36xnjyu-23" value="Item 1" style="text;strokeColor=none;fillColor=none;align=left;verticalAlign=middle;spacingLeft=4;spacingRight=4;overflow=hidden;points=[[0,0.5],[1,0.5]];portConstraint=eastwest;rotatable=0;whiteSpace=wrap;html=1;" vertex="1" parent="txtvfkZL9xQmY36xnjyu-22">
          <mxGeometry y="30" width="140" height="30" as="geometry" />
        </mxCell>
        <mxCell id="txtvfkZL9xQmY36xnjyu-24" value="Item 2" style="text;strokeColor=none;fillColor=none;align=left;verticalAlign=middle;spacingLeft=4;spacingRight=4;overflow=hidden;points=[[0,0.5],[1,0.5]];portConstraint=eastwest;rotatable=0;whiteSpace=wrap;html=1;" vertex="1" parent="txtvfkZL9xQmY36xnjyu-22">
          <mxGeometry y="60" width="140" height="30" as="geometry" />
        </mxCell>
        <mxCell id="txtvfkZL9xQmY36xnjyu-25" value="Item 3" style="text;strokeColor=none;fillColor=none;align=left;verticalAlign=middle;spacingLeft=4;spacingRight=4;overflow=hidden;points=[[0,0.5],[1,0.5]];portConstraint=eastwest;rotatable=0;whiteSpace=wrap;html=1;" vertex="1" parent="txtvfkZL9xQmY36xnjyu-22">
          <mxGeometry y="90" width="140" height="30" as="geometry" />
        </mxCell>
        <mxCell id="txtvfkZL9xQmY36xnjyu-30" value="Item 4" style="text;strokeColor=none;fillColor=none;align=left;verticalAlign=middle;spacingLeft=4;spacingRight=4;overflow=hidden;points=[[0,0.5],[1,0.5]];portConstraint=eastwest;rotatable=0;whiteSpace=wrap;html=1;" vertex="1" parent="txtvfkZL9xQmY36xnjyu-22">
          <mxGeometry y="120" width="140" height="30" as="geometry" />
        </mxCell>
        <mxCell id="txtvfkZL9xQmY36xnjyu-31" value="Item 5" style="text;strokeColor=none;fillColor=none;align=left;verticalAlign=middle;spacingLeft=4;spacingRight=4;overflow=hidden;points=[[0,0.5],[1,0.5]];portConstraint=eastwest;rotatable=0;whiteSpace=wrap;html=1;" vertex="1" parent="txtvfkZL9xQmY36xnjyu-22">
          <mxGeometry y="150" width="140" height="30" as="geometry" />
        </mxCell>
        <mxCell id="txtvfkZL9xQmY36xnjyu-33" value="Item 6" style="text;strokeColor=none;fillColor=none;align=left;verticalAlign=middle;spacingLeft=4;spacingRight=4;overflow=hidden;points=[[0,0.5],[1,0.5]];portConstraint=eastwest;rotatable=0;whiteSpace=wrap;html=1;" vertex="1" parent="txtvfkZL9xQmY36xnjyu-22">
          <mxGeometry y="180" width="140" height="30" as="geometry" />
        </mxCell>
        <mxCell id="txtvfkZL9xQmY36xnjyu-32" value="List Item" style="text;strokeColor=none;fillColor=none;align=left;verticalAlign=middle;spacingLeft=4;spacingRight=4;overflow=hidden;points=[[0,0.5],[1,0.5]];portConstraint=eastwest;rotatable=0;whiteSpace=wrap;html=1;" vertex="1" parent="txtvfkZL9xQmY36xnjyu-22">
          <mxGeometry y="210" width="140" height="30" as="geometry" />
        </mxCell>
        <mxCell id="txtvfkZL9xQmY36xnjyu-27" value="" style="rounded=0;whiteSpace=wrap;html=1;" vertex="1" parent="1">
          <mxGeometry x="1980" y="620" width="370" height="120" as="geometry" />
        </mxCell>
        <mxCell id="txtvfkZL9xQmY36xnjyu-28" value="Rich text editor to edit project blurb" style="text;html=1;strokeColor=none;fillColor=none;align=center;verticalAlign=middle;whiteSpace=wrap;rounded=0;" vertex="1" parent="1">
          <mxGeometry x="1980" y="627.5" width="220" height="30" as="geometry" />
        </mxCell>
        <mxCell id="txtvfkZL9xQmY36xnjyu-29" value="Add media files" style="shape=note;size=20;whiteSpace=wrap;html=1;" vertex="1" parent="1">
          <mxGeometry x="1980" y="758" width="100" height="100" as="geometry" />
        </mxCell>
        <mxCell id="txtvfkZL9xQmY36xnjyu-34" value="Project Media" style="swimlane;fontStyle=0;childLayout=stackLayout;horizontal=1;startSize=26;fillColor=none;horizontalStack=0;resizeParent=1;resizeParentMax=0;resizeLast=0;collapsible=1;marginBottom=0;html=1;" vertex="1" parent="1">
          <mxGeometry x="2090" y="756" width="100" height="104" as="geometry" />
        </mxCell>
        <mxCell id="txtvfkZL9xQmY36xnjyu-35" value="Item 1" style="text;strokeColor=none;fillColor=none;align=left;verticalAlign=top;spacingLeft=4;spacingRight=4;overflow=hidden;rotatable=0;points=[[0,0.5],[1,0.5]];portConstraint=eastwest;whiteSpace=wrap;html=1;" vertex="1" parent="txtvfkZL9xQmY36xnjyu-34">
          <mxGeometry y="26" width="100" height="26" as="geometry" />
        </mxCell>
        <mxCell id="txtvfkZL9xQmY36xnjyu-36" value="Item 2" style="text;strokeColor=none;fillColor=none;align=left;verticalAlign=top;spacingLeft=4;spacingRight=4;overflow=hidden;rotatable=0;points=[[0,0.5],[1,0.5]];portConstraint=eastwest;whiteSpace=wrap;html=1;" vertex="1" parent="txtvfkZL9xQmY36xnjyu-34">
          <mxGeometry y="52" width="100" height="26" as="geometry" />
        </mxCell>
        <mxCell id="txtvfkZL9xQmY36xnjyu-37" value="Item 3" style="text;strokeColor=none;fillColor=none;align=left;verticalAlign=top;spacingLeft=4;spacingRight=4;overflow=hidden;rotatable=0;points=[[0,0.5],[1,0.5]];portConstraint=eastwest;whiteSpace=wrap;html=1;" vertex="1" parent="txtvfkZL9xQmY36xnjyu-34">
          <mxGeometry y="78" width="100" height="26" as="geometry" />
        </mxCell>
        <mxCell id="txtvfkZL9xQmY36xnjyu-38" value="Preview" style="rounded=1;whiteSpace=wrap;html=1;" vertex="1" parent="1">
          <mxGeometry x="2125" y="900" width="120" height="40" as="geometry" />
        </mxCell>
        <mxCell id="txtvfkZL9xQmY36xnjyu-39" value="Save Changes" style="rounded=1;whiteSpace=wrap;html=1;" vertex="1" parent="1">
          <mxGeometry x="2270" y="900" width="120" height="40" as="geometry" />
        </mxCell>
        <mxCell id="txtvfkZL9xQmY36xnjyu-40" value="Edit Project Skills" style="swimlane;fontStyle=0;childLayout=stackLayout;horizontal=1;startSize=26;fillColor=none;horizontalStack=0;resizeParent=1;resizeParentMax=0;resizeLast=0;collapsible=1;marginBottom=0;html=1;" vertex="1" parent="1">
          <mxGeometry x="2210" y="756" width="140" height="104" as="geometry" />
        </mxCell>
        <mxCell id="txtvfkZL9xQmY36xnjyu-41" value="Item 1" style="text;strokeColor=none;fillColor=none;align=left;verticalAlign=top;spacingLeft=4;spacingRight=4;overflow=hidden;rotatable=0;points=[[0,0.5],[1,0.5]];portConstraint=eastwest;whiteSpace=wrap;html=1;" vertex="1" parent="txtvfkZL9xQmY36xnjyu-40">
          <mxGeometry y="26" width="140" height="26" as="geometry" />
        </mxCell>
        <mxCell id="txtvfkZL9xQmY36xnjyu-42" value="Item 2" style="text;strokeColor=none;fillColor=none;align=left;verticalAlign=top;spacingLeft=4;spacingRight=4;overflow=hidden;rotatable=0;points=[[0,0.5],[1,0.5]];portConstraint=eastwest;whiteSpace=wrap;html=1;" vertex="1" parent="txtvfkZL9xQmY36xnjyu-40">
          <mxGeometry y="52" width="140" height="26" as="geometry" />
        </mxCell>
        <mxCell id="txtvfkZL9xQmY36xnjyu-43" value="Item 3" style="text;strokeColor=none;fillColor=none;align=left;verticalAlign=top;spacingLeft=4;spacingRight=4;overflow=hidden;rotatable=0;points=[[0,0.5],[1,0.5]];portConstraint=eastwest;whiteSpace=wrap;html=1;" vertex="1" parent="txtvfkZL9xQmY36xnjyu-40">
          <mxGeometry y="78" width="140" height="26" as="geometry" />
        </mxCell>
      </root>
    </mxGraphModel>
  </diagram>
</mxfile>
